<?xml version="1.0" encoding="UTF-8"?>
<svg width="281px" height="56px" viewBox="0 0 281 56" version="1.1" xmlns="http://www.w3.org/2000/svg" xmlns:xlink="http://www.w3.org/1999/xlink">
    <!-- Generator: Sketch 40 (33762) - http://www.bohemiancoding.com/sketch -->
    <title>Group 5</title>
    <desc>Created with Sketch.</desc>
    <defs></defs>
    <g id="Page-1" stroke="none" stroke-width="1" fill="none" fill-rule="evenodd">
        <g id="Group-5">
            <path d="M23.5,0 L47,14 L47,42 L23.5,56 L1.64313008e-14,42 L1.33226763e-15,14 L23.5,0 Z M23.5381003,2.47172414 L24.7302317,25.9085208 L44.9964661,15.2554314 L44.9964661,40.822846 L23.5381003,53.6065533 L22.3459689,30.1697566 L2.07973451,40.822846 L2.07973451,15.2554314 L23.5381003,2.47172414 Z" id="Logo-Copy" fill="#FF5722"></path>
            <path d="M65.04,41 L65.04,15.135 L69.695,15.135 L69.695,22.94 C71.0483401,21.7266606 72.6816571,21.12 74.595,21.12 C79.6816921,21.12 82.225,24.0949702 82.225,30.045 L82.225,41 L77.57,41 L77.57,31.095 C77.57,29.0416564 77.2841695,27.5833376 76.7125,26.72 C76.1408305,25.8566623 75.1666736,25.425 73.79,25.425 C72.3433261,25.425 71.2991699,25.8741622 70.6575,26.7725 C70.0158301,27.6708378 69.695,29.1349899 69.695,31.165 L69.695,41 L65.04,41 Z M105.255,33.37 L90.24,33.37 C90.5200014,34.5366725 91.1324953,35.4641632 92.0775,36.1525 C93.0225047,36.8408368 94.194993,37.185 95.595,37.185 C96.5750049,37.185 97.3799968,37.0450014 98.01,36.765 C98.6400031,36.4849986 99.2583303,35.9833369 99.865,35.26 L104.94,35.26 C104.356664,37.0800091 103.201675,38.5674942 101.475,39.7225 C99.7483247,40.8775058 97.8233439,41.455 95.7,41.455 C92.7599853,41.455 90.2750101,40.4866764 88.245,38.55 C86.2149898,36.6133236 85.2,34.2216809 85.2,31.375 C85.2,28.5283191 86.1916567,26.1133432 88.175,24.13 C90.1583433,22.1466568 92.5733191,21.155 95.42,21.155 C98.3133478,21.155 100.704991,22.1349902 102.595,24.095 C104.485009,26.0550098 105.43,28.5516515 105.43,31.585 C105.43,32.2150032 105.371667,32.8099972 105.255,33.37 L105.255,33.37 Z M90.1,29.275 L100.845,29.275 C100.23833,26.7083205 98.4650147,25.425 95.525,25.425 C92.6549856,25.425 90.8466704,26.7083205 90.1,29.275 L90.1,29.275 Z M108.44,41 L108.44,15.135 L113.095,15.135 L113.095,41 L108.44,41 Z M116.84,41 L116.84,15.135 L121.495,15.135 L121.495,41 L116.84,41 Z M134.69,21.155 C137.583348,21.155 140.02749,22.1408235 142.0225,24.1125 C144.01751,26.0841765 145.015,28.4933191 145.015,31.34 C145.015,34.1166805 144.011677,36.4966568 142.005,38.48 C139.998323,40.4633432 137.571681,41.455 134.725,41.455 C131.878319,41.455 129.445843,40.4691765 127.4275,38.4975 C125.409157,36.5258235 124.4,34.1283474 124.4,31.305 C124.4,28.504986 125.403323,26.1133432 127.41,24.13 C129.416677,22.1466568 131.843319,21.155 134.69,21.155 L134.69,21.155 Z M134.69,25.425 C133.149992,25.425 131.831672,25.9966609 130.735,27.14 C129.638328,28.283339 129.09,29.6716585 129.09,31.305 C129.09,32.9383415 129.638328,34.326661 130.735,35.47 C131.831672,36.6133391 133.149992,37.185 134.69,37.185 C136.253341,37.185 137.583328,36.6133391 138.68,35.47 C139.776672,34.326661 140.325,32.9383415 140.325,31.305 C140.325,29.6716585 139.776672,28.283339 138.68,27.14 C137.583328,25.9966609 136.253341,25.425 134.69,25.425 L134.69,25.425 Z M157.44,41 L157.44,21.61 L161.71,21.61 L161.71,23.43 C162.970006,21.9133258 164.649989,21.155 166.75,21.155 C168.10334,21.155 169.223329,21.388331 170.11,21.855 C170.996671,22.321669 171.77833,23.0916613 172.455,24.165 C173.971674,22.1583233 176.036654,21.155 178.65,21.155 C183.900026,21.155 186.525,24.0366379 186.525,29.8 L186.525,41 L181.87,41 L181.87,30.36 C181.87,28.6333247 181.58417,27.3791706 181.0125,26.5975 C180.44083,25.8158294 179.51334,25.425 178.23,25.425 C176.829993,25.425 175.82667,25.8858287 175.22,26.8075 C174.61333,27.7291713 174.31,29.2749892 174.31,31.445 L174.31,41 L169.655,41 L169.655,30.36 C169.655,28.6333247 169.357503,27.3791706 168.7625,26.5975 C168.167497,25.8158294 167.216673,25.425 165.91,25.425 C164.509993,25.425 163.52417,25.8741622 162.9525,26.7725 C162.38083,27.6708378 162.095,29.2283223 162.095,31.445 L162.095,41 L157.44,41 Z M209.975,21.61 L209.975,41 L205.705,41 L205.705,38.48 C204.794995,39.5300053 203.838338,40.288331 202.835,40.755 C201.831662,41.221669 200.641674,41.455 199.265,41.455 C196.418319,41.455 194.079176,40.5041762 192.2475,38.6025 C190.415824,36.7008238 189.5,34.2916813 189.5,31.375 C189.5,28.4116518 190.427491,25.9675096 192.2825,24.0425 C194.137509,22.1174904 196.488319,21.155 199.335,21.155 C200.781674,21.155 202.000828,21.388331 202.9925,21.855 C203.984172,22.321669 204.888329,23.1033279 205.705,24.2 L205.705,21.61 L209.975,21.61 Z M199.86,25.425 C198.179992,25.425 196.815005,25.9849944 195.765,27.105 C194.714995,28.2250056 194.19,29.6833244 194.19,31.48 C194.19,33.1833419 194.714995,34.5599947 195.765,35.61 C196.815005,36.6600053 198.203325,37.185 199.93,37.185 C201.633342,37.185 202.998328,36.6483387 204.025,35.575 C205.051672,34.5016613 205.565,33.1016753 205.565,31.375 C205.565,29.6483247 205.028339,28.2250056 203.955,27.105 C202.881661,25.9849944 201.516675,25.425 199.86,25.425 L199.86,25.425 Z M213.44,41 L213.44,15.135 L218.095,15.135 L218.095,30.745 L224.29,21.61 L229.855,21.61 L222.925,31.095 L230.975,41 L224.71,41 L218.095,31.935 L218.095,41 L213.44,41 Z M252.955,33.37 L237.94,33.37 C238.220001,34.5366725 238.832495,35.4641632 239.7775,36.1525 C240.722505,36.8408368 241.894993,37.185 243.295,37.185 C244.275005,37.185 245.079997,37.0450014 245.71,36.765 C246.340003,36.4849986 246.95833,35.9833369 247.565,35.26 L252.64,35.26 C252.056664,37.0800091 250.901675,38.5674942 249.175,39.7225 C247.448325,40.8775058 245.523344,41.455 243.4,41.455 C240.459985,41.455 237.97501,40.4866764 235.945,38.55 C233.91499,36.6133236 232.9,34.2216809 232.9,31.375 C232.9,28.5283191 233.891657,26.1133432 235.875,24.13 C237.858343,22.1466568 240.273319,21.155 243.12,21.155 C246.013348,21.155 248.404991,22.1349902 250.295,24.095 C252.185009,26.0550098 253.13,28.5516515 253.13,31.585 C253.13,32.2150032 253.071667,32.8099972 252.955,33.37 L252.955,33.37 Z M237.8,29.275 L248.545,29.275 C247.93833,26.7083205 246.165015,25.425 243.225,25.425 C240.354986,25.425 238.54667,26.7083205 237.8,29.275 L237.8,29.275 Z M256.14,41 L256.14,21.61 L260.41,21.61 L260.41,23.5 C261.01667,22.6133289 261.62333,22.000835 262.23,21.6625 C262.83667,21.324165 263.618329,21.155 264.575,21.155 L264.96,21.155 L264.96,25.635 C262.183319,25.635 260.795,27.1633181 260.795,30.22 L260.795,41 L256.14,41 Z M266.115,34.84 L270.805,34.84 C271.038335,35.6566707 271.359165,36.2516648 271.7675,36.625 C272.175835,36.9983352 272.71833,37.185 273.395,37.185 C274.00167,37.185 274.503331,37.0100018 274.9,36.66 C275.296669,36.3099983 275.495,35.8550028 275.495,35.295 C275.495,34.7116637 275.296669,34.2683348 274.9,33.965 C274.503331,33.6616651 273.470842,33.2300028 271.8025,32.67 C270.134158,32.1099972 268.885837,31.3925044 268.0575,30.5175 C267.229163,29.6424956 266.815,28.4933405 266.815,27.07 C266.815,25.4133251 267.433327,24.0133391 268.67,22.87 C269.906673,21.7266609 271.434991,21.155 273.255,21.155 C275.098343,21.155 276.620827,21.6974946 277.8225,22.7825 C279.024173,23.8675054 279.625,25.2616582 279.625,26.965 L275.075,26.965 C274.864999,25.9383282 274.258338,25.425 273.255,25.425 C272.764998,25.425 272.345002,25.5766652 271.995,25.88 C271.644998,26.1833349 271.47,26.568331 271.47,27.035 C271.47,27.4783355 271.615832,27.8224988 271.9075,28.0675 C272.199168,28.3125012 272.71833,28.5516655 273.465,28.785 L274.76,29.17 C276.72001,29.7766697 278.108329,30.5058291 278.925,31.3575 C279.741671,32.2091709 280.15,33.3699926 280.15,34.84 C280.15,36.706676 279.479173,38.275827 278.1375,39.5475 C276.795827,40.819173 275.156676,41.455 273.22,41.455 C271.166656,41.455 269.521673,40.8833391 268.285,39.74 C267.048327,38.596661 266.325001,36.9633439 266.115,34.84 L266.115,34.84 Z" id="hello-makers" fill="#4B4B4B"></path>
        </g>
    </g>
</svg>